HIERARCHY
ROOT Hips
{
	OFFSET 53.413898 -11.295815 95.715897
	CHANNELS 6 Xposition Yposition Zposition Xrotation Yrotation Zrotation
	JOINT spine
	{
		OFFSET 0.000000 -0.458069 7.965683
		CHANNELS 3 Xrotation Yrotation Zrotation
		JOINT spine1
		{
			OFFSET 0.000000 -0.000001 10.243103
			CHANNELS 3 Xrotation Yrotation Zrotation
			JOINT spine2
			{
				OFFSET 0.000000 -0.000002 9.814751
				CHANNELS 3 Xrotation Yrotation Zrotation
				JOINT Neck
				{
					OFFSET 0.000000 -1.201384 25.198601
					CHANNELS 3 Xrotation Yrotation Zrotation
					JOINT Head
					{
						OFFSET 0.000000 -0.000002 7.613144
						CHANNELS 3 Xrotation Yrotation Zrotation
						End Site
						{
							OFFSET 0.000000 6.077327 18.428101
						}
					}
				}
				JOINT RightShoulder
				{
					OFFSET -4.132702 0.575449 10.599205
					CHANNELS 3 Xrotation Yrotation Zrotation
					JOINT RightArm
					{
						OFFSET 0.000000 -0.000002 13.901794
						CHANNELS 3 Xrotation Yrotation Zrotation
						JOINT RightArmRoll
						{
							OFFSET 0.000000 -0.000002 7.017883
							CHANNELS 3 Xrotation Yrotation Zrotation
							JOINT RightForeArm
							{
								OFFSET 0.000000 -0.000003 20.440598
								CHANNELS 3 Xrotation Yrotation Zrotation
								JOINT RightForeArmRoll
								{
									OFFSET 0.000000 -0.000001 7.875153
									CHANNELS 3 Xrotation Yrotation Zrotation
									JOINT RightHand
									{
										OFFSET 0.000000 -0.000003 15.803696
										CHANNELS 3 Xrotation Yrotation Zrotation
										End Site
										{
											OFFSET 0.000000 0.000000 0.100006
										}
									}
								}
							}
						}
					}
				}
				JOINT LeftShoulder
				{
					OFFSET 4.132702 0.575449 10.599205
					CHANNELS 3 Xrotation Yrotation Zrotation
					JOINT LeftArm
					{
						OFFSET 0.000000 -0.000002 13.901794
						CHANNELS 3 Xrotation Yrotation Zrotation
						JOINT LeftArmRoll
						{
							OFFSET 0.000000 -0.000002 7.017883
							CHANNELS 3 Xrotation Yrotation Zrotation
							JOINT LeftForeArm
							{
								OFFSET 0.000000 -0.000003 20.440598
								CHANNELS 3 Xrotation Yrotation Zrotation
								JOINT LeftForeArmRoll
								{
									OFFSET 0.000000 -0.000001 7.875153
									CHANNELS 3 Xrotation Yrotation Zrotation
									JOINT LeftHand
									{
										OFFSET 0.000000 -0.000003 15.803696
										CHANNELS 3 Xrotation Yrotation Zrotation
										End Site
										{
											OFFSET 0.000000 0.000000 0.100006
										}
									}
								}
							}
						}
					}
				}
			}
		}
	}
	JOINT RightUpLeg
	{
		OFFSET -7.060482 1.086100 -1.294701
		CHANNELS 3 Xrotation Yrotation Zrotation
		JOINT RightUpLegRoll
		{
			OFFSET 0.000000 -0.000003 18.530800
			CHANNELS 3 Xrotation Yrotation Zrotation
			JOINT RightLeg
			{
				OFFSET 0.000000 0.000004 -22.947601
				CHANNELS 3 Xrotation Yrotation Zrotation
				JOINT RightLegRoll
				{
					OFFSET 0.000000 -0.000004 23.022598
					CHANNELS 3 Xrotation Yrotation Zrotation
					JOINT RightFoot
					{
						OFFSET 0.000000 -0.000004 19.162506
						CHANNELS 3 Xrotation Yrotation Zrotation
						JOINT RightToeBase
						{
							OFFSET 0.000000 -0.000002 16.018799
							CHANNELS 3 Xrotation Yrotation Zrotation
							End Site
							{
								OFFSET 0.006790 0.894205 7.757828
							}
						}
					}
				}
			}
		}
	}
	JOINT LeftUpLeg
	{
		OFFSET 7.060482 1.086100 -1.294701
		CHANNELS 3 Xrotation Yrotation Zrotation
		JOINT LeftUpLegRoll
		{
			OFFSET 0.000000 -0.000003 18.530899
			CHANNELS 3 Xrotation Yrotation Zrotation
			JOINT LeftLeg
			{
				OFFSET 0.000000 -0.000004 22.947502
				CHANNELS 3 Xrotation Yrotation Zrotation
				JOINT LeftLegRoll
				{
					OFFSET 0.000000 -0.000004 23.235504
					CHANNELS 3 Xrotation Yrotation Zrotation
					JOINT LeftFoot
					{
						OFFSET 0.000000 -0.000003 18.949600
						CHANNELS 3 Xrotation Yrotation Zrotation
						JOINT LeftToeBase
						{
							OFFSET 0.000000 -0.000003 16.018799
							CHANNELS 3 Xrotation Yrotation Zrotation
							End Site
							{
								OFFSET -0.030430 0.894205 7.757828
							}
						}
					}
				}
			}
		}
	}
}
MOTION
Frames: 4
Frame Time: 0.041667
52.536594 -10.401212 95.668594 -3.093299 0.630976 0.523254 -1.909435 -0.106167 -0.097875 0.189088 -0.210335 -0.167506 1.834153 -0.212370 -0.165013 27.962393 -4.530417 0.378609 -6.784349 3.976799 -0.189569 6.702029 -76.980835 5.052528 -61.813895 -111.342814 -33.902057 0.000000 0.000001 0.000006 -0.015058 0.843526 0.044043 0.000001 0.000006 -3.060550 -5.000155 -8.000109 0.000002 11.908467 72.268381 -11.384582 -50.049977 115.420170 26.303130 0.000007 0.000000 -0.000006 -0.003176 -1.119490 -0.422483 -0.000001 -0.000006 3.010241 -5.000137 8.000119 -0.000001 3.998139 -175.571747 -1.636213 179.999991 -0.000004 -1.206999 176.005369 -2.130816 -0.561769 -0.000002 0.000004 0.050051 69.007034 6.961655 1.931761 25.603401 -7.355095 0.217123 0.721234 172.662579 -0.671995 -0.000020 -0.000005 -1.139300 -6.649025 2.204874 0.397863 -0.000007 -0.000002 -0.008153 69.215402 -6.525254 -3.050254 25.456945 7.355623 -0.000005 
52.535397 -10.402715 95.664886 -3.098120 0.622908 0.524450 -1.907833 -0.103837 -0.098181 0.192494 -0.205643 -0.170585 1.837562 -0.207712 -0.168146 27.945661 -4.521550 0.380337 -6.758362 3.973883 -0.187194 6.708209 -76.975945 5.059766 -61.837439 -111.346304 -33.795322 0.000000 0.000001 0.000007 -0.015284 0.977397 0.055834 -0.000001 0.000005 -3.060623 -5.000157 -8.000109 0.000001 11.872798 72.259870 -11.347338 -50.039923 115.419665 26.308459 0.000008 0.000001 -0.000004 -0.003178 -1.102130 -0.422454 -0.000001 -0.000007 3.010241 -5.000135 8.000119 -0.000000 4.005360 -175.562814 -1.628588 179.999991 -0.000004 -1.206999 176.008429 -2.132813 -0.561794 -0.000002 0.000004 0.049404 69.007034 6.961655 1.931761 25.602795 -7.355084 0.216143 0.735100 172.673603 -0.666426 -0.000020 -0.000005 -1.139360 -6.635759 2.203454 0.397175 -0.000006 -0.000002 -0.008152 69.215395 -6.528038 -3.044465 25.456948 7.355623 -0.000005 
52.531395 -10.403614 95.659393 -3.103338 0.614392 0.525446 -1.906142 -0.101447 -0.098497 0.196095 -0.200830 -0.173769 1.841163 -0.202934 -0.171384 27.928080 -4.511822 0.382022 -6.731288 3.970202 -0.184749 6.717199 -76.970884 5.070008 -61.857950 -111.351693 -33.685001 0.000000 0.000002 0.000007 -0.015503 1.112471 0.067638 -0.000001 0.000006 -3.060678 -5.000157 -8.000109 0.000004 11.836392 72.251811 -11.309209 -50.032280 115.417534 26.317211 0.000008 0.000000 -0.000006 -0.003177 -1.083331 -0.422425 -0.000002 -0.000007 3.010241 -5.000133 8.000119 -0.000000 4.013113 -175.553893 -1.620411 179.999991 -0.000004 -1.206999 176.011940 -2.135820 -0.561872 -0.000002 0.000004 0.048725 69.006931 6.961648 1.931665 25.601982 -7.355088 0.214969 0.749990 172.684627 -0.660533 -0.000020 -0.000005 -1.139440 -6.621611 2.201908 0.396432 -0.000007 -0.000002 -0.008153 69.215334 -6.530959 -3.038309 25.456947 7.355622 -0.000004 
52.544098 -10.422211 95.659988 -3.108826 0.605563 0.526303 -1.904394 -0.099015 -0.098822 0.199836 -0.195932 -0.177024 1.844901 -0.198072 -0.174694 27.909977 -4.501482 0.383701 -6.703456 3.965978 -0.182252 6.728165 -76.965768 5.082366 -61.879417 -111.357704 -33.575680 0.000003 0.000001 0.000003 -0.015712 1.248380 0.079454 0.000002 0.000006 -3.060740 -5.000154 -8.000109 0.000003 11.799501 72.244181 -11.270497 -50.024329 115.415239 26.326216 0.000009 0.000000 -0.000003 -0.003175 -1.063531 -0.422390 0.000001 -0.000007 3.010239 -5.000135 8.000120 -0.000002 4.021250 -175.543962 -1.611792 179.999991 -0.000004 -1.206999 176.015737 -2.138828 -0.561940 -0.000002 0.000004 0.048023 69.006610 6.961631 1.931783 25.601082 -7.355090 0.213646 0.765595 172.696648 -0.654398 -0.000020 -0.000004 -1.139550 -6.606854 2.200275 0.395648 -0.000006 -0.000002 -0.008153 69.215307 -6.534019 -3.031874 25.456948 7.355622 -0.000005 
